<svg xmlns="http://www.w3.org/2000/svg" viewBox="0 0 512 512">
  <defs>
    <linearGradient id="blue10" x1="0" y1="0" x2="1" y2="1">
      <stop offset="0%" stop-color="#42a5f5"/><stop offset="100%" stop-color="#1565c0"/>
    </linearGradient>
    <linearGradient id="red10" x1="0" y1="0" x2="1" y2="1">
      <stop offset="0%" stop-color="#ef5350"/><stop offset="100%" stop-color="#c62828"/>
    </linearGradient>
    <radialGradient id="ball10" cx="40%" cy="35%" r="62%">
      <stop offset="0%" stop-color="#ffffff"/><stop offset="100%" stop-color="#e6ebf5"/>
    </radialGradient>
    <clipPath id="round10"><rect width="512" height="512" rx="112"/></clipPath>
    <filter id="sh10" x="-30%" y="-30%" width="160%" height="160%">
      <feDropShadow dx="0" dy="8" stdDeviation="12" flood-color="#000" flood-opacity="0.35"/>
    </filter>
  </defs>
  <g clip-path="url(#round10)">
    <rect width="512" height="512" fill="url(#blue10)"/>
    <path d="M512 0 L512 512 L120 512 Z" fill="url(#red10)"/>
    <!-- thin seam between halves -->
    <path d="M392 0 L0 512" stroke="#0e1f52" stroke-width="10" opacity="0.25"/>
  </g>
  <!-- center ball -->
  <g filter="url(#sh10)" transform="translate(256,256)">
    <circle r="118" fill="url(#ball10)"/>
    <g fill="none" stroke="#1f2a44" stroke-width="9" stroke-linecap="round">
      <path d="M-68 -50 C-42 -76 12 -82 38 -88"/>
      <path d="M-80 8 C-32 -12 26 -6 70 -44"/>
      <path d="M-42 82 C-62 38 -58 -18 -36 -76"/>
      <path d="M58 78 C82 34 82 -22 52 -80"/>
    </g>
  </g>
</svg>
