<svg xmlns="http://www.w3.org/2000/svg" viewBox="0 0 512 512">
  <defs>
    <linearGradient id="bg13" x1="0" y1="0" x2="1" y2="1">
      <stop offset="0%" stop-color="#2a3160"/><stop offset="100%" stop-color="#111228"/>
    </linearGradient>
    <radialGradient id="ball13" cx="40%" cy="35%" r="62%">
      <stop offset="0%" stop-color="#ffffff"/><stop offset="100%" stop-color="#e3e9f4"/>
    </radialGradient>
    <filter id="sh13" x="-30%" y="-30%" width="160%" height="160%">
      <feDropShadow dx="0" dy="6" stdDeviation="10" flood-color="#000" flood-opacity="0.4"/>
    </filter>
  </defs>
  <rect width="512" height="512" rx="112" fill="url(#bg13)"/>
  <!-- motion arcs behind -->
  <g fill="none" stroke="#4fc3f7" stroke-linecap="round" opacity="0.5">
    <path d="M150 392 C150 300 210 232 300 220" stroke-width="9"/>
    <path d="M124 404 C128 296 196 214 308 192" stroke-width="7" opacity="0.6"/>
  </g>
  <!-- player spiking silhouette -->
  <g filter="url(#sh13)" fill="#2196f3">
    <path d="M196 300
             C188 286 184 270 188 252
             C176 244 168 230 170 214
             C172 196 188 184 206 186
             C216 174 232 168 248 172
             L268 196
             C284 206 296 224 300 244
             L286 256
             C280 240 270 226 256 218
             L246 252
             C252 286 244 322 220 348
             C214 354 204 356 198 350
             C190 342 190 330 196 322 Z"/>
    <circle cx="226" cy="156" r="22" fill="#2196f3"/>
  </g>
  <!-- ball top-right being struck -->
  <g filter="url(#sh13)" transform="translate(340,168)">
    <circle r="58" fill="url(#ball13)"/>
    <g fill="none" stroke="#1f2a44" stroke-width="6" stroke-linecap="round">
      <path d="M-34 -24 C-20 -38 6 -40 18 -44"/>
      <path d="M-40 4 C-16 -6 14 -2 36 -22"/>
      <path d="M-20 40 C-30 18 -28 -10 -16 -38"/>
    </g>
  </g>
</svg>
