<svg xmlns="http://www.w3.org/2000/svg" viewBox="0 0 512 512">
  <defs>
    <linearGradient id="bg" x1="0" y1="0" x2="0" y2="1"><stop offset="0%" stop-color="#202549"/><stop offset="100%" stop-color="#141528"/></linearGradient>
    <linearGradient id="panel" x1="0" y1="0" x2="0" y2="1"><stop offset="0%" stop-color="#262c54"/><stop offset="100%" stop-color="#1a2042"/></linearGradient>
    <filter id="sh" x="-20%" y="-20%" width="140%" height="140%"><feDropShadow dx="0" dy="8" stdDeviation="14" flood-color="#000" flood-opacity="0.45"/></filter>
  </defs>
  <rect width="512" height="512" rx="112" fill="url(#bg)"/>
  <g filter="url(#sh)">
    <rect x="72" y="138" width="368" height="236" rx="30" fill="url(#panel)" stroke="#39406e" stroke-width="3"/>
  </g>
  <!-- sets header row -->
  <text x="146" y="186" font-family="system-ui,sans-serif" font-weight="700" font-size="22" fill="#9aa6e0" text-anchor="middle" letter-spacing="2">SETS</text>
  <g><rect x="118" y="198" width="22" height="22" rx="5" fill="#2196f3"/><rect x="148" y="198" width="22" height="22" rx="5" fill="#2196f3"/><rect x="178" y="198" width="22" height="22" rx="5" fill="#39406e"/></g>
  <g><rect x="312" y="198" width="22" height="22" rx="5" fill="#f44336"/><rect x="342" y="198" width="22" height="22" rx="5" fill="#39406e"/><rect x="372" y="198" width="22" height="22" rx="5" fill="#39406e"/></g>
  <!-- big scores -->
  <rect x="253" y="240" width="6" height="104" rx="3" fill="#39406e"/>
  <text x="178" y="334" font-family="'DejaVu Sans Mono',monospace" font-weight="800" font-size="100" fill="#4fc3f7" text-anchor="middle">25</text>
  <text x="334" y="334" font-family="'DejaVu Sans Mono',monospace" font-weight="800" font-size="100" fill="#ff7a45" text-anchor="middle">23</text>
</svg>
